<?xml version="1.0" standalone="no"?><svg xmlns="http://www.w3.org/2000/svg" viewBox="0 0 1440 320"><path fill="#0099ff" fill-opacity="1" d="M0,256L30,240C60,224,120,192,180,165.3C240,139,300,117,360,133.3C420,149,480,203,540,202.7C600,203,660,149,720,138.7C780,128,840,160,900,170.7C960,181,1020,171,1080,170.7C1140,171,1200,181,1260,197.3C1320,213,1380,235,1410,245.3L1440,256L1440,320L1410,320C1380,320,1320,320,1260,320C1200,320,1140,320,1080,320C1020,320,960,320,900,320C840,320,780,320,720,320C660,320,600,320,540,320C480,320,420,320,360,320C300,320,240,320,180,320C120,320,60,320,30,320L0,320Z"></path></svg>